<svg width="33" height="33" viewBox="0 0 33 33" fill="none" xmlns="http://www.w3.org/2000/svg">
<path d="M16.5 33C18.7782 33 20.625 31.1532 20.625 28.875H12.375C12.375 31.1532 14.2218 33 16.5 33Z" fill="current"/>
<path d="M18.5525 2.26676C18.5591 2.19957 18.5625 2.13143 18.5625 2.0625C18.5625 0.923413 17.6391 0 16.5 0C15.3609 0 14.4375 0.923413 14.4375 2.0625C14.4375 2.13143 14.4409 2.19958 14.4475 2.26677C9.73541 3.21842 6.18755 7.38239 6.18755 12.375C6.18755 14.6388 5.15625 24.75 2.0625 26.8125H30.9375C27.8438 24.75 26.8125 14.6388 26.8125 12.375C26.8125 7.38236 23.2646 3.21837 18.5525 2.26676Z" fill="current"/>
</svg>
