<svg width="15" height="21" viewBox="0 0 15 21" fill="none" xmlns="http://www.w3.org/2000/svg">
<path d="M0 2.625C0 1.17525 1.11929 0 2.5 0H12.5C13.8807 0 15 1.17525 15 2.625V20.3438C15 20.5858 14.8731 20.8081 14.6699 20.9223C14.4667 21.0365 14.2201 21.024 14.0283 20.8898L7.5 17.195L0.971688 20.8898C0.779902 21.024 0.533312 21.0365 0.330089 20.9223C0.126865 20.8081 0 20.5858 0 20.3438V2.625ZM2.5 1.3125C1.80964 1.3125 1.25 1.90013 1.25 2.625V19.1175L7.15331 15.8602C7.36325 15.7133 7.63675 15.7133 7.84669 15.8602L13.75 19.1175V2.625C13.75 1.90013 13.1904 1.3125 12.5 1.3125H2.5Z" fill="#494955"/>
</svg>
