<svg width="23" height="23" viewBox="0 0 23 23" fill="none" xmlns="http://www.w3.org/2000/svg">
<path d="M3.84946 17.0976C4.1519 17.4009 4.30334 17.8232 4.26252 18.2496C4.17104 19.2051 3.96034 20.1995 3.68973 21.1233C5.69489 20.6599 6.91951 20.1223 7.47617 19.8402C7.79214 19.6801 8.15611 19.6423 8.49825 19.734C9.44389 19.9876 10.4517 20.125 11.5 20.125C17.2437 20.125 21.5625 16.0892 21.5625 11.5C21.5625 6.91085 17.2437 2.875 11.5 2.875C5.75633 2.875 1.4375 6.91085 1.4375 11.5C1.4375 13.6104 2.32487 15.5687 3.84946 17.0976ZM3.14079 22.711C3.1311 22.7129 3.12141 22.7148 3.1117 22.7167C2.9797 22.7427 2.84513 22.7683 2.70799 22.7935C2.51562 22.8287 2.31817 22.863 2.1156 22.8961C1.82951 22.943 1.61053 22.6437 1.72353 22.3767C1.79736 22.2023 1.87015 22.0195 1.94106 21.83C1.9861 21.7096 2.03039 21.5864 2.07372 21.461C2.07559 21.4556 2.07745 21.4502 2.07931 21.4448C2.43545 20.4102 2.72545 19.221 2.83157 18.1126C1.06815 16.3442 0 14.0313 0 11.5C0 5.94263 5.14873 1.4375 11.5 1.4375C17.8513 1.4375 23 5.94263 23 11.5C23 17.0574 17.8513 21.5625 11.5 21.5625C10.3259 21.5625 9.19292 21.4085 8.12595 21.1225C7.37921 21.5009 5.77061 22.1897 3.14079 22.711Z" fill="current"/>
<path d="M5.75 7.90625C5.75 7.5093 6.0718 7.1875 6.46875 7.1875H16.5312C16.9282 7.1875 17.25 7.5093 17.25 7.90625C17.25 8.3032 16.9282 8.625 16.5312 8.625H6.46875C6.0718 8.625 5.75 8.3032 5.75 7.90625ZM5.75 11.5C5.75 11.103 6.0718 10.7812 6.46875 10.7812H16.5312C16.9282 10.7812 17.25 11.103 17.25 11.5C17.25 11.897 16.9282 12.2188 16.5312 12.2188H6.46875C6.0718 12.2188 5.75 11.897 5.75 11.5ZM5.75 15.0938C5.75 14.6968 6.0718 14.375 6.46875 14.375H12.2188C12.6157 14.375 12.9375 14.6968 12.9375 15.0938C12.9375 15.4907 12.6157 15.8125 12.2188 15.8125H6.46875C6.0718 15.8125 5.75 15.4907 5.75 15.0938Z" fill="current"/>
</svg>
