<svg width="25" height="25" viewBox="0 0 25 25" fill="none" xmlns="http://www.w3.org/2000/svg">
<path d="M13.8497 0.0719676C12.3564 -0.301346 10.9701 0.828285 10.8692 2.29039C10.7559 3.93351 10.5108 5.44001 10.1993 6.33869C10.0048 6.89985 9.45148 7.91986 8.57623 8.89795C7.70455 9.87207 6.57164 10.7397 5.2452 11.1015C4.19608 11.3877 3.125 12.2968 3.125 13.6252V19.8768C3.125 21.1962 4.19114 22.1641 5.38737 22.2909C7.05845 22.4681 7.83094 22.9397 8.61866 23.4205L8.69304 23.4659C9.11925 23.7257 9.59651 24.0117 10.2099 24.2229C10.8296 24.4363 11.5552 24.5633 12.5 24.5633H17.9688C19.4329 24.5633 20.4671 23.8166 20.9908 22.9001C21.2471 22.4516 21.3867 21.9529 21.3867 21.4749C21.3867 21.2368 21.3512 20.9872 21.2667 20.7492C21.5814 20.3393 21.8617 19.847 22.0302 19.3416C22.2017 18.8272 22.2983 18.1517 22.0353 17.5474C22.1434 17.3432 22.2242 17.1272 22.2844 16.9166C22.405 16.4945 22.4609 16.0303 22.4609 15.5789C22.4609 15.1275 22.405 14.6633 22.2844 14.2412C22.2305 14.0526 22.16 13.8596 22.0682 13.6746C22.6848 12.7818 22.722 11.7982 22.4337 10.9664C22.1131 10.0413 21.3693 9.2483 20.5596 8.97837C19.2359 8.53715 17.7417 8.54731 16.6285 8.64852C16.3813 8.67099 16.1489 8.69835 15.9366 8.72741C16.6717 5.6058 16.1828 2.95628 15.8384 1.68127C15.6238 0.886746 14.9807 0.354721 14.2582 0.174085L13.8497 0.0719676ZM17.9688 23.0008H12.5C11.702 23.0008 11.1515 22.8945 10.7186 22.7455C10.2795 22.5943 9.92789 22.3886 9.50613 22.1316L9.44378 22.0936C8.57681 21.5647 7.57125 20.9512 5.55214 20.7371C5.03211 20.682 4.6875 20.2832 4.6875 19.8768V13.6252C4.6875 13.2278 5.04046 12.7769 5.6564 12.6089C7.36791 12.142 8.74507 11.0524 9.74061 9.93987C10.7326 8.83133 11.4036 7.63535 11.6757 6.85034C12.0547 5.7566 12.3114 4.08792 12.428 2.39793C12.4671 1.83182 12.9917 1.46802 13.4707 1.58779L13.8792 1.68991C14.1301 1.75265 14.2829 1.91451 14.33 2.08872C14.6743 3.36336 15.1863 6.22121 14.1026 9.47245C14.0124 9.74296 14.0768 10.0411 14.2705 10.2503C14.4642 10.4595 14.7567 10.5465 15.0332 10.4774L15.0373 10.4764L15.0587 10.4713C15.0786 10.4666 15.1096 10.4595 15.1507 10.4504C15.233 10.4323 15.3556 10.4066 15.5109 10.3778C15.8222 10.3202 16.2617 10.2508 16.7699 10.2046C17.8052 10.1105 19.0453 10.1206 20.0654 10.4607C20.3396 10.5521 20.7678 10.931 20.9574 11.478C21.1238 11.9583 21.0915 12.5231 20.5413 13.0733L19.9889 13.6258L20.5413 14.1782C20.6078 14.2447 20.7043 14.3984 20.782 14.6705C20.8567 14.9319 20.8984 15.249 20.8984 15.5789C20.8984 15.9087 20.8567 16.2258 20.782 16.4873C20.7043 16.7593 20.6078 16.9131 20.5413 16.9796L19.9889 17.532L20.5413 18.0844C20.6148 18.1579 20.7104 18.3601 20.5479 18.8475C20.3953 19.3053 20.0752 19.7895 19.7601 20.1046L19.2076 20.657L19.7601 21.2094C19.7683 21.2176 19.8242 21.287 19.8242 21.4749C19.8242 21.656 19.7685 21.8898 19.6342 22.1249C19.3766 22.5756 18.8483 23.0008 17.9688 23.0008Z" fill="current"/>
</svg>
