<svg width="125" height="40" viewBox="0 0 125 40" fill="none" xmlns="http://www.w3.org/2000/svg">
<path d="M26.048 15.584V32H22.08V15.584H26.048ZM26.592 10.8C26.592 11.1413 26.5227 11.4613 26.384 11.76C26.2453 12.0587 26.0587 12.32 25.824 12.544C25.6 12.768 25.3333 12.9493 25.024 13.088C24.7147 13.216 24.384 13.28 24.032 13.28C23.6907 13.28 23.3653 13.216 23.056 13.088C22.7573 12.9493 22.496 12.768 22.272 12.544C22.048 12.32 21.8667 12.0587 21.728 11.76C21.6 11.4613 21.536 11.1413 21.536 10.8C21.536 10.448 21.6 10.1173 21.728 9.808C21.8667 9.49867 22.048 9.232 22.272 9.008C22.496 8.784 22.7573 8.608 23.056 8.48C23.3653 8.34133 23.6907 8.272 24.032 8.272C24.384 8.272 24.7147 8.34133 25.024 8.48C25.3333 8.608 25.6 8.784 25.824 9.008C26.0587 9.232 26.2453 9.49867 26.384 9.808C26.5227 10.1173 26.592 10.448 26.592 10.8ZM33.773 17.6C34.1037 17.2693 34.4503 16.9653 34.813 16.688C35.1863 16.4 35.5757 16.16 35.981 15.968C36.397 15.7653 36.8397 15.6107 37.309 15.504C37.7783 15.3867 38.2903 15.328 38.845 15.328C39.741 15.328 40.5357 15.4827 41.229 15.792C41.9223 16.0907 42.4983 16.5173 42.957 17.072C43.4263 17.616 43.7783 18.272 44.013 19.04C44.2583 19.7973 44.381 20.6347 44.381 21.552V32H40.429V21.552C40.429 20.5493 40.1997 19.776 39.741 19.232C39.2823 18.6773 38.5837 18.4 37.645 18.4C36.9623 18.4 36.3223 18.5547 35.725 18.864C35.1277 19.1733 34.5623 19.5947 34.029 20.128V32H30.077V15.584H32.493C33.005 15.584 33.341 15.824 33.501 16.304L33.773 17.6ZM58.4435 19.776C57.9955 19.232 57.5048 18.848 56.9715 18.624C56.4488 18.4 55.8835 18.288 55.2755 18.288C54.6782 18.288 54.1395 18.4 53.6595 18.624C53.1795 18.848 52.7688 19.1893 52.4275 19.648C52.0862 20.096 51.8248 20.672 51.6435 21.376C51.4622 22.0693 51.3715 22.8907 51.3715 23.84C51.3715 24.8 51.4462 25.616 51.5955 26.288C51.7555 26.9493 51.9795 27.4933 52.2675 27.92C52.5555 28.336 52.9075 28.64 53.3235 28.832C53.7395 29.0133 54.2035 29.104 54.7155 29.104C55.5368 29.104 56.2355 28.9333 56.8115 28.592C57.3875 28.2507 57.9315 27.7653 58.4435 27.136V19.776ZM62.3955 8.224V32H59.9795C59.4568 32 59.1262 31.76 58.9875 31.28L58.6515 29.696C57.9902 30.4533 57.2275 31.0667 56.3635 31.536C55.5102 32.0053 54.5128 32.24 53.3715 32.24C52.4755 32.24 51.6542 32.0533 50.9075 31.68C50.1608 31.3067 49.5155 30.768 48.9715 30.064C48.4382 29.3493 48.0222 28.4693 47.7235 27.424C47.4355 26.3787 47.2915 25.184 47.2915 23.84C47.2915 22.624 47.4568 21.4933 47.7875 20.448C48.1182 19.4027 48.5928 18.496 49.2115 17.728C49.8302 16.96 50.5715 16.3627 51.4355 15.936C52.2995 15.4987 53.2702 15.28 54.3475 15.28C55.2648 15.28 56.0488 15.424 56.6995 15.712C57.3502 16 57.9315 16.3893 58.4435 16.88V8.224H62.3955ZM73.5598 15.328C74.7758 15.328 75.8798 15.5253 76.8718 15.92C77.8744 16.3147 78.7278 16.8747 79.4318 17.6C80.1464 18.3253 80.6957 19.2107 81.0798 20.256C81.4638 21.3013 81.6558 22.4693 81.6558 23.76C81.6558 25.0613 81.4638 26.2347 81.0798 27.28C80.6957 28.3253 80.1464 29.216 79.4318 29.952C78.7278 30.688 77.8744 31.2533 76.8718 31.648C75.8798 32.0427 74.7758 32.24 73.5598 32.24C72.3331 32.24 71.2184 32.0427 70.2158 31.648C69.2131 31.2533 68.3544 30.688 67.6398 29.952C66.9358 29.216 66.3864 28.3253 65.9918 27.28C65.6078 26.2347 65.4158 25.0613 65.4158 23.76C65.4158 22.4693 65.6078 21.3013 65.9918 20.256C66.3864 19.2107 66.9358 18.3253 67.6398 17.6C68.3544 16.8747 69.2131 16.3147 70.2158 15.92C71.2184 15.5253 72.3331 15.328 73.5598 15.328ZM73.5598 29.2C74.9251 29.2 75.9331 28.7413 76.5838 27.824C77.2451 26.9067 77.5758 25.5627 77.5758 23.792C77.5758 22.0213 77.2451 20.672 76.5838 19.744C75.9331 18.816 74.9251 18.352 73.5598 18.352C72.1731 18.352 71.1438 18.8213 70.4718 19.76C69.8104 20.688 69.4798 22.032 69.4798 23.792C69.4798 25.552 69.8104 26.896 70.4718 27.824C71.1438 28.7413 72.1731 29.2 73.5598 29.2ZM98.9708 15.584L92.4588 32H88.8748L82.3628 15.584H85.6268C85.9254 15.584 86.1708 15.6533 86.3628 15.792C86.5654 15.9307 86.6988 16.1067 86.7628 16.32L89.9308 25.088C90.1014 25.6 90.2508 26.1013 90.3788 26.592C90.5068 27.0827 90.6188 27.5733 90.7148 28.064C90.8214 27.5733 90.9388 27.0827 91.0668 26.592C91.1948 26.1013 91.3494 25.6 91.5308 25.088L94.7628 16.32C94.8374 16.1067 94.9708 15.9307 95.1628 15.792C95.3548 15.6533 95.5841 15.584 95.8508 15.584H98.9708ZM105.173 15.584V32H101.205V15.584H105.173ZM105.717 10.8C105.717 11.1413 105.648 11.4613 105.509 11.76C105.37 12.0587 105.184 12.32 104.949 12.544C104.725 12.768 104.458 12.9493 104.149 13.088C103.84 13.216 103.509 13.28 103.157 13.28C102.816 13.28 102.49 13.216 102.181 13.088C101.882 12.9493 101.621 12.768 101.397 12.544C101.173 12.32 100.992 12.0587 100.853 11.76C100.725 11.4613 100.661 11.1413 100.661 10.8C100.661 10.448 100.725 10.1173 100.853 9.808C100.992 9.49867 101.173 9.232 101.397 9.008C101.621 8.784 101.882 8.608 102.181 8.48C102.49 8.34133 102.816 8.272 103.157 8.272C103.509 8.272 103.84 8.34133 104.149 8.48C104.458 8.608 104.725 8.784 104.949 9.008C105.184 9.232 105.37 9.49867 105.509 9.808C105.648 10.1173 105.717 10.448 105.717 10.8ZM119.778 21.904C119.778 21.392 119.703 20.912 119.554 20.464C119.415 20.0053 119.202 19.6053 118.914 19.264C118.626 18.9227 118.258 18.656 117.81 18.464C117.373 18.2613 116.861 18.16 116.274 18.16C115.133 18.16 114.231 18.4853 113.57 19.136C112.919 19.7867 112.503 20.7093 112.322 21.904H119.778ZM112.242 24.288C112.306 25.1307 112.455 25.8613 112.69 26.48C112.925 27.088 113.234 27.5947 113.618 28C114.002 28.3947 114.455 28.6933 114.978 28.896C115.511 29.088 116.098 29.184 116.738 29.184C117.378 29.184 117.927 29.1093 118.386 28.96C118.855 28.8107 119.261 28.6453 119.602 28.464C119.954 28.2827 120.258 28.1173 120.514 27.968C120.781 27.8187 121.037 27.744 121.282 27.744C121.613 27.744 121.858 27.8667 122.018 28.112L123.154 29.552C122.717 30.064 122.226 30.496 121.682 30.848C121.138 31.1893 120.567 31.4667 119.97 31.68C119.383 31.8827 118.781 32.0267 118.162 32.112C117.554 32.1973 116.962 32.24 116.386 32.24C115.245 32.24 114.183 32.0533 113.202 31.68C112.221 31.296 111.367 30.736 110.642 30C109.917 29.2533 109.346 28.336 108.93 27.248C108.514 26.1493 108.306 24.88 108.306 23.44C108.306 22.32 108.487 21.2693 108.85 20.288C109.213 19.296 109.73 18.4373 110.402 17.712C111.085 16.976 111.911 16.3947 112.882 15.968C113.863 15.5413 114.967 15.328 116.194 15.328C117.229 15.328 118.183 15.4933 119.058 15.824C119.933 16.1547 120.685 16.64 121.314 17.28C121.943 17.9093 122.434 18.688 122.786 19.616C123.149 20.5333 123.33 21.584 123.33 22.768C123.33 23.3653 123.266 23.7707 123.138 23.984C123.01 24.1867 122.765 24.288 122.402 24.288H112.242Z" fill="current"/>
<rect x="4" y="19" width="13" height="4" transform="rotate(90 4 19)" fill="current"/>
<rect y="19" width="18" height="4" fill="current"/>
<rect y="9" width="18" height="4" fill="current"/>
</svg>
