<svg width="27" height="27" viewBox="0 0 27 27" fill="none" xmlns="http://www.w3.org/2000/svg">
<path d="M7.84088 7.84088C8.17038 7.51137 8.70462 7.51137 9.03412 7.84088L13.5 12.3068L17.9659 7.84088C18.2954 7.51137 18.8296 7.51137 19.1591 7.84088C19.4886 8.17038 19.4886 8.70462 19.1591 9.03412L14.6932 13.5L19.1591 17.9659C19.4886 18.2954 19.4886 18.8296 19.1591 19.1591C18.8296 19.4886 18.2954 19.4886 17.9659 19.1591L13.5 14.6932L9.03412 19.1591C8.70462 19.4886 8.17038 19.4886 7.84088 19.1591C7.51137 18.8296 7.51137 18.2954 7.84088 17.9659L12.3068 13.5L7.84088 9.03412C7.51137 8.70462 7.51137 8.17038 7.84088 7.84088Z" fill="current"/>
</svg>
